PathFileType	4	(X/Y/Z)	W16_1_OpenSim.trc																																																																																																																						
DataRate	CameraRate	NumFrames	NumMarkers	Units	OrigDataRate	OrigDataStartFrame	OrigNumFrames																																																																																																																		
100	100	8	40	mm	100	376	3000																																																																																																																		
Frame#	Time	R.ASIS			R.PSIS			S2			L.PSIS			L.ASIS			R.TH1			R.TH2			R.TH3			R.MKnee			R.Knee			R.SH1			R.SH2			R.SH3			R.SH4			R.Ankle			R.MAnkle			R.Heel			R.MT5			R.MT1			L.TH1			L.TH2			L.TH3			L.TH4			L.MKnee			L.Knee			L.SH1			L.SH2			L.SH3			L.Ankle			L.MAnkle			L.Heel			L.MT5			L.MT1			R.Acr			L.Acr			C7			T10			Clav			Sternum			R.Back		
		X1	Y1	Z1	X2	Y2	Z2	X3	Y3	Z3	X4	Y4	Z4	X5	Y5	Z5	X6	Y6	Z6	X7	Y7	Z7	X8	Y8	Z8	X9	Y9	Z9	X10	Y10	Z10	X11	Y11	Z11	X12	Y12	Z12	X13	Y13	Z13	X14	Y14	Z14	X15	Y15	Z15	X16	Y16	Z16	X17	Y17	Z17	X18	Y18	Z18	X19	Y19	Z19	X20	Y20	Z20	X21	Y21	Z21	X22	Y22	Z22	X23	Y23	Z23	X24	Y24	Z24	X25	Y25	Z25	X26	Y26	Z26	X27	Y27	Z27	X28	Y28	Z28	X29	Y29	Z29	X30	Y30	Z30	X31	Y31	Z31	X32	Y32	Z32	X33	Y33	Z33	X34	Y34	Z34	X35	Y35	Z35	X36	Y36	Z36	X37	Y37	Z37	X38	Y38	Z38	X39	Y39	Z39	X40	Y40	Z40
376	3.75	894.1274	1036.8491	-402.0238	711.3589	1045.1641	-509.6472	706.6221	1043.8191	-555.3584	716.6328	1053.5269	-604.3939	901.19	1052.7739	-696.9563	907.0213	708.4131	-387.2755	827.0923	692.568	-379.3971	848.8504	584.5844	-387.0495	890.6976	468.4365	-505.9085	877.6788	477.5202	-387.2532	763.0632	362.3224	-384.8154	674.507	294.0801	-403.9378	712.6034	429.0001	-378.2877	624.3494	357.1086	-386.3784	504.7805	257.6553	-395.6427	542.7743	229.9792	-484.7489	456.5104	302.6014	-457.828	499.5679	135.5669	-369.3408	527.1771	91.1589	-454.3648	961.5637	769.9902	-709.567	981.8511	664.3161	-695.6681	881.4316	749.5153	-724.0005	904.0284	643.9268	-703.2946	976.882	513.3055	-568.655	986.0865	517.3347	-678.5471	989.7711	381.5698	-695.0809	908.5826	389.0977	-708.9705	900.8425	279.3696	-702.46	929.1591	81.0338	-695.4665	958.3038	91.2607	-595.3038	863.449	40.9495	-641.6622	1036.2483	32.4841	-712.0491	1076.5685	44.206	-613.4251	860.5521	1443.0397	-391.5698	828.3197	1437.1294	-717.9808	785.4722	1484.1127	-552.4514	750.2712	1158.0306	-545.6461	922.9839	1389.224	-561.1172	951.6984	1245.4305	-550.7527	711.9313	1386.7584	-459.2854
377	3.76	893.4474	1039.9446	-402.9213	711.0275	1048.3516	-510.4721	706.2914	1046.9731	-556.1908	716.348	1056.5876	-605.2352	900.808	1054.9114	-697.9151	913.5303	713.6873	-387.9313	834.0684	695.2506	-380.743	859.2376	588.0924	-388.1271	904.9309	473.4671	-507.1877	891.4892	482.1281	-388.3363	778.2176	366.4215	-386.5753	690.302	297.4343	-406.2192	727.2225	432.6665	-380.8664	639.5444	360.1191	-389.1963	521.096	259.7801	-398.8615	559.7833	232.9784	-487.8456	470.961	302.0725	-461.3131	520.7126	138.1832	-371.6561	549.8845	94.3472	-456.3309	957.1741	769.8134	-710.0945	975.4274	663.8022	-696.1649	876.6213	750.8829	-724.2186	897.3481	644.864	-703.2261	967.7416	513.09	-568.8541	976.7237	516.7168	-678.8999	977.9435	380.9595	-695.2977	896.8099	389.6881	-708.7932	887.4689	280.0668	-702.367	913.2655	81.2046	-695.3946	942.3821	91.41	-595.2125	847.4584	41.1893	-641.6428	1020.1165	32.6082	-712.0492	1060.5043	44.3049	-613.4174	858.8418	1445.3976	-391.8793	829.1176	1439.8832	-718.6	785.1775	1486.8207	-553.3893	749.8177	1160.7548	-547.1101	922.5491	1391.7732	-561.1063	951.2159	1248.0477	-550.5464	710.7983	1389.4108	-461.1116
378	3.77	892.9316	1043.4476	-403.9898	710.6468	1051.6965	-511.1999	705.8946	1050.2385	-556.9233	715.9825	1059.7039	-605.991	900.353	1056.9403	-698.7433	919.6898	719.4385	-388.3257	840.7612	698.4817	-381.818	869.2349	592.2296	-388.8933	918.7651	479.0281	-508.175	904.802	487.2897	-389.198	793.3131	370.545	-388.085	706.5664	300.1796	-408.068	741.3931	435.9927	-383.6542	654.7917	362.2359	-392.0721	538.2546	259.7653	-401.9141	577.7977	234.4285	-490.8322	485.8895	298.8948	-464.5391	543.8925	138.7885	-373.9237	575.0467	96.1892	-458.423	952.4247	769.596	-710.6209	968.5182	663.2512	-696.7198	871.459	752.2773	-724.4358	890.2162	645.8425	-703.2373	958.1294	512.8323	-569.218	966.7856	516.1353	-679.3767	965.7926	380.4273	-695.5948	884.7542	390.2467	-708.8714	873.9562	280.7493	-702.4758	897.3766	81.3664	-695.3596	926.4867	91.5934	-595.1764	831.4916	41.4519	-641.6121	1003.9872	32.6637	-712.0574	1044.4656	44.3783	-613.3857	857.0316	1447.7762	-392.0511	829.7759	1442.6609	-719.1016	784.8441	1489.5073	-554.2139	749.2831	1163.4912	-548.5409	922.0564	1394.348	-560.9761	950.6898	1250.7108	-550.2745	709.6218	1392.0432	-462.8563
379	3.78	892.5225	1047.2125	-405.1563	710.1951	1055.0469	-511.7945	705.4131	1053.4817	-557.517	715.5137	1062.7719	-606.619	899.8238	1058.8595	-699.4476	925.5024	725.5375	-388.4423	847.1584	702.152	-382.5944	878.8148	596.8581	-389.3397	932.1464	484.9949	-508.8248	917.5775	492.8528	-389.7847	808.3564	374.4863	-389.2878	723.3034	302.1786	-409.4128	755.173	438.7625	-386.433	670.1336	363.2921	-394.8181	556.2456	257.6688	-404.7173	596.843	234.2427	-493.5914	501.6177	293.3569	-467.5066	568.5499	137.4858	-376.0718	602.0349	96.6307	-460.474	947.3779	769.3621	-711.1921	961.194	662.6898	-697.3716	866.0071	753.7116	-724.7178	882.712	646.886	-703.4174	948.1181	512.5336	-569.7928	956.3272	515.6061	-680.033	953.3491	379.9701	-696.0349	872.4378	390.7821	-709.2121	860.3152	281.4207	-702.7828	881.4888	81.5345	-695.3798	910.6306	91.8171	-595.2168	815.5508	41.7401	-641.5843	987.874	32.6628	-712.0986	1028.448	44.4335	-613.3558	855.1655	1450.1216	-392.1183	830.3397	1445.4323	-719.497	784.4923	1492.1251	-554.9342	748.6816	1166.1956	-549.9171	921.5263	1396.9082	-560.7488	950.1363	1253.3705	-549.9712	708.4304	1394.6249	-464.5146
380	3.79	892.1438	1051.0316	-406.3361	709.6547	1058.2512	-512.221	704.8301	1056.5679	-557.9372	714.9183	1065.6851	-607.0798	899.2069	1060.6644	-700.0507	930.9618	731.8331	-388.2776	853.2334	706.135	-383.07	887.9372	601.8247	-389.4776	945.0199	491.2379	-509.115	929.7727	498.6622	-390.0636	823.3582	378.0551	-390.1503	740.5048	303.3404	-410.2327	768.6257	440.7841	-388.9721	685.6188	363.1617	-397.2653	575.054	253.6179	-407.2128	616.9226	232.4276	-496.0317	518.3715	285.7412	-470.2338	594.2678	134.4551	-378.0234	630.3634	95.7213	-462.3193	942.0804	769.1166	-711.8347	953.5251	662.1298	-698.1304	860.316	755.178	-725.1066	874.9087	647.9973	-703.8123	937.7646	512.1921	-570.5891	945.3873	515.1327	-680.8918	940.6181	379.5763	-696.6559	859.8546	391.2973	-709.7696	846.5231	282.0808	-703.2416	865.6033	81.7161	-695.4547	894.8216	92.0755	-595.3331	799.6278	42.0564	-641.5672	971.7958	32.6299	-712.1807	1012.4491	44.4745	-613.3469	853.2864	1452.3724	-392.1105	830.8615	1448.1604	-719.793	784.138	1494.6212	-555.5585	748.0296	1168.8157	-551.2158	920.9792	1399.4026	-560.446	949.5725	1255.9654	-549.6631	707.2495	1397.1167	-466.0861
381	3.8	891.7313	1054.6838	-407.4523	709.0149	1061.1749	-512.4528	704.1348	1059.3752	-558.1585	714.1783	1068.3425	-607.3437	898.4796	1062.345	-700.5867	936.0574	738.1558	-387.841	858.9528	710.2866	-383.2591	896.554	606.9656	-389.3308	957.3276	497.6167	-509.0475	941.3448	504.5633	-390.0296	838.3207	381.1074	-390.6656	758.1471	303.6308	-410.5554	781.7993	441.921	-391.084	701.2906	361.78	-399.2934	594.6734	247.7865	-409.3478	638.0059	229.0721	-498.0833	536.2725	276.2971	-472.7125	620.8049	129.9291	-379.6942	659.7048	93.5964	-463.8187	936.5591	768.8472	-712.5514	945.5817	661.5712	-698.983	854.4271	756.6502	-725.6168	866.8684	649.1595	-704.4245	927.1146	511.8048	-571.585	933.997	514.7087	-681.9407	927.6028	379.2305	-697.4642	846.9964	391.7922	-710.4721	832.554	282.7265	-703.7865	849.728	81.9115	-695.5706	879.0616	92.355	-595.5073	783.7057	42.4047	-641.5646	955.7702	32.5929	-712.3001	996.4695	44.502	-613.3705	851.4336	1454.4639	-392.0493	831.3931	1450.8022	-719.992	783.7946	1496.9421	-556.0922	747.3435	1171.2937	-552.4173	920.4344	1401.7705	-560.0868	949.0116	1258.4237	-549.3683	706.1024	1399.4714	-467.5734
382	3.81	891.2513	1057.9774	-408.4484	708.2749	1063.7125	-512.4759	703.3234	1061.8063	-558.1689	713.2854	1070.6573	-607.3959	897.6166	1063.8822	-701.0937	940.7807	744.3299	-387.156	864.2889	714.452	-383.1822	904.6198	612.113	-388.9329	968.9999	503.9833	-508.6464	952.2531	510.4062	-389.7069	853.2319	383.5589	-390.8481	776.1959	303.0694	-410.4536	794.7165	442.1035	-392.6512	717.1823	359.1479	-400.832	615.1157	240.3712	-411.0633	660.0331	224.3169	-499.6847	555.3606	265.2325	-474.8882	648.082	124.1676	-380.9931	689.8655	90.4492	-464.8667	930.8243	768.5284	-713.3242	937.4283	661.0051	-699.8987	848.376	758.0911	-726.2382	858.6387	650.3418	-705.2204	916.2042	511.371	-572.7326	922.1979	514.3218	-683.1401	914.3227	378.9181	-698.4327	833.8746	392.2643	-711.2461	818.4008	283.3527	-704.3553	833.8716	82.1183	-695.707	863.3464	92.6396	-595.714	767.7679	42.7882	-641.5775	939.8066	32.5735	-712.4475	980.5044	44.52	-613.43	849.6418	1456.3313	-391.9483	831.9762	1453.3075	-720.096	783.4741	1499.0394	-556.537	746.6371	1173.5692	-553.5081	919.9091	1403.9469	-559.6868	948.4605	1260.6704	-549.0975	705.0114	1401.6374	-468.9784
383	3.82	890.7005	1060.7747	-409.2945	707.444	1065.7952	-512.2924	702.4027	1063.7941	-557.9713	712.2435	1072.5649	-607.2386	896.5969	1065.2466	-701.6055	945.1245	750.1944	-386.2646	869.2296	718.4795	-382.8591	912.101	617.1056	-388.3216	979.9603	510.1925	-507.9583	962.4592	516.0543	-389.1449	868.0676	385.3807	-390.723	794.6105	301.7189	-410.0318	807.3825	441.3195	-393.6263	733.3174	355.3212	-401.8488	636.413	231.5724	-412.2943	682.9307	218.3242	-500.7707	575.6289	252.7237	-476.6646	676.1313	117.4375	-381.8276	720.7469	86.5055	-465.3925	924.8827	768.1288	-714.1196	929.1171	660.414	-700.8342	842.1952	759.4607	-726.9421	850.2541	651.5052	-706.1445	905.0629	510.893	-573.9686	910.0584	513.9577	-684.4368	900.8184	378.6265	-699.507	820.5269	392.7101	-712.0335	804.0843	283.9539	-704.9045	818.0399	82.3336	-695.8424	847.6673	92.9158	-595.9307	751.809	43.2031	-641.6031	923.9042	32.5832	-712.6127	964.5433	44.5367	-613.5217	847.9401	1457.9136	-391.8155	832.6359	1455.6212	-720.1085	783.1863	1500.8723	-556.8939	745.921	1175.584	-554.4816	919.417	1405.8689	-559.2576	947.9166	1262.6343	-548.8555	703.9953	1403.564	-470.2995
